<svg xmlns="http://www.w3.org/2000/svg" width="94" height="74" viewBox="0 0 94 74" fill="none">
  <path
    d="M89.8 15.7H3.70001C1.70001 15.7 0 14.1 0 12V3.7C0 1.7 1.60001 0 3.70001 0H89.8C91.8 0 93.4999 1.6 93.4999 3.7V12C93.3999 14 91.8 15.7 89.8 15.7Z"
    fill="#B9E2B6" />
  <path
    d="M89.8 73.7H3.70001C1.70001 73.7 0 72.1 0 70V61.7C0 59.7 1.60001 58 3.70001 58H89.8C91.8 58 93.4999 59.6 93.4999 61.7V70C93.3999 72 91.8 73.7 89.8 73.7Z"
    fill="#B9E2B6" />
  <path
    d="M89.8 44.7H3.70001C1.70001 44.7 0 43.1 0 41V32.7C0 30.7 1.60001 29 3.70001 29H89.8C91.8 29 93.4999 30.6 93.4999 32.7V41C93.3999 43 91.8 44.7 89.8 44.7Z"
    fill="#B9E2B6" />
  <path
    d="M89.8 15.7H3.70001C1.70001 15.7 0 14.1 0 12V3.7C0 1.7 1.60001 0 3.70001 0H89.8C91.8 0 93.4999 1.6 93.4999 3.7V12C93.3999 14 91.8 15.7 89.8 15.7Z"
    fill="#019F6C" />
  <path
    d="M89.8 73.7H3.70001C1.70001 73.7 0 72.1 0 70V61.7C0 59.7 1.60001 58 3.70001 58H89.8C91.8 58 93.4999 59.6 93.4999 61.7V70C93.3999 72 91.8 73.7 89.8 73.7Z"
    fill="#019F6C" />
  <path
    d="M89.8 44.7H3.70001C1.70001 44.7 0 43.1 0 41V32.7C0 30.7 1.60001 29 3.70001 29H89.8C91.8 29 93.4999 30.6 93.4999 32.7V41C93.3999 43 91.8 44.7 89.8 44.7Z"
    fill="#019F6C" />
</svg>