<svg xmlns="http://www.w3.org/2000/svg" width="76" height="67" viewBox="0 0 76 67" fill="none">
  <path
    d="M38.0001 6.03628C48.1 6.03628 49.2963 6.0703 53.2849 6.23126C56.9729 6.38044 58.976 6.92612 60.309 7.38492C62.0745 7.99263 63.3346 8.71864 64.6582 9.89087C65.9821 11.0631 66.8016 12.1791 67.4878 13.7426C68.0058 14.9232 68.622 16.6971 68.7904 19.9631C68.9722 23.4958 69.0106 24.5552 69.0106 33.5C69.0106 42.445 68.9722 43.5045 68.7904 47.0369C68.622 50.3031 68.0058 52.0768 67.4878 53.2574C66.8016 54.8209 65.9818 55.9371 64.6582 57.1094C63.3346 58.2816 62.0745 59.0076 60.309 59.6151C58.976 60.0739 56.9729 60.6198 53.2849 60.7687C49.2969 60.93 48.1006 60.964 38.0001 60.964C27.8993 60.964 26.7031 60.93 22.715 60.7687C19.027 60.6196 17.0243 60.0739 15.6912 59.6151C13.9257 59.0076 12.6654 58.2816 11.3417 57.1094C10.0181 55.9369 9.19835 54.8209 8.51245 53.2574C7.99441 52.0771 7.37796 50.3031 7.20981 47.0369C7.02777 43.5045 6.98936 42.445 6.98936 33.5C6.98936 24.5552 7.02777 23.4958 7.20981 19.9634C7.37826 16.6971 7.99441 14.9232 8.51245 13.7426C9.19835 12.1791 10.0181 11.0631 11.3417 9.89087C12.6657 8.71838 13.9257 7.99263 15.6912 7.38492C17.024 6.92612 19.027 6.38044 22.715 6.23126C26.7036 6.0703 27.8999 6.03628 38.0001 6.03628ZM38.0001 0C27.727 0 26.4389 0.0384726 22.4045 0.201523C18.378 0.364312 15.6282 0.930672 13.2224 1.75875C10.7347 2.61483 8.62534 3.76037 6.52244 5.62277C4.41953 7.48516 3.12635 9.3533 2.15971 11.5562C1.22439 13.6871 0.585189 16.1224 0.401377 19.6881C0.217269 23.261 0.173828 24.4019 0.173828 33.5C0.173828 42.5981 0.217269 43.739 0.401377 47.3119C0.585189 50.8779 1.22439 53.3132 2.15971 55.4438C3.12605 57.6467 4.41953 59.5151 6.52244 61.3775C8.62534 63.2399 10.7347 64.3852 13.2224 65.2412C15.6285 66.0696 18.378 66.6357 22.4042 66.7985C26.4389 66.9615 27.727 67 38.0001 67C48.2732 67 49.5614 66.9615 53.5958 66.7985C57.6219 66.6357 60.3717 66.0696 62.7775 65.2412C65.2652 64.3854 67.3746 63.2399 69.4775 61.3775C71.5804 59.5151 72.8739 57.647 73.8405 55.4438C74.7755 53.3129 75.415 50.8779 75.5988 47.3122C75.783 43.739 75.8264 42.5981 75.8264 33.5C75.8264 24.4019 75.783 23.261 75.5988 19.6881C75.415 16.1224 74.7755 13.6871 73.8405 11.5565C72.8739 9.3533 71.5804 7.48516 69.4775 5.62277C67.3746 3.76037 65.2652 2.61457 62.7778 1.75875C60.3717 0.930672 57.6219 0.364312 53.5958 0.201523C49.5614 0.0384726 48.2732 0 38.0001 0ZM38.0001 16.2972C27.2722 16.2972 18.5757 23.9996 18.5757 33.5C18.5757 43.0009 27.2722 50.7028 38.0001 50.7028C48.7277 50.7028 57.4245 43.0009 57.4245 33.5C57.4245 23.9993 48.7277 16.2972 38.0001 16.2972ZM38.0001 44.6668C31.0365 44.6668 25.3913 39.6671 25.3913 33.5C25.3913 27.3329 31.0365 22.3332 38.0001 22.3332C44.9637 22.3332 50.609 27.3329 50.609 33.5C50.609 39.6671 44.9637 44.6668 38.0001 44.6668ZM62.7308 15.6175C62.7308 17.838 60.6988 19.6375 58.1917 19.6375C55.6848 19.6375 53.6525 17.838 53.6525 15.6175C53.6525 13.3974 55.6848 11.5975 58.1917 11.5975C60.6988 11.5975 62.7308 13.3974 62.7308 15.6175Z"
    fill="black" />
</svg>