<svg xmlns="http://www.w3.org/2000/svg" width="76" height="67" viewBox="0 0 76 67" fill="none">
  <path
    d="M64.8069 57.0881H53.5977V41.5412C53.5977 37.834 53.5229 33.0615 47.7677 33.0615C41.9294 33.0615 41.0361 37.1009 41.0361 41.2714V57.087H29.8271V25.1165H40.5878V29.4857H40.7385C41.8154 27.8549 43.3716 26.5133 45.2413 25.6039C47.111 24.6944 49.2242 24.2511 51.3559 24.3212C62.717 24.3212 64.8117 30.9395 64.8117 39.5495L64.8069 57.0881ZM17.1789 20.7466C13.5863 20.7471 10.6734 18.1682 10.6728 14.9864C10.6722 11.8047 13.584 9.22496 17.1766 9.22444C20.7692 9.22365 23.6821 11.8026 23.6827 14.9843C23.683 16.5123 22.998 17.9777 21.7783 19.0584C20.5586 20.139 18.9042 20.7463 17.1789 20.7466ZM22.7837 57.0883H11.5626V25.1165H22.7834V57.0881L22.7837 57.0883ZM70.3952 0.00487631H5.93004C2.88325 -0.025483 0.384647 2.13605 0.347412 4.83437V62.1646C0.383465 64.8643 2.88177 67.0279 5.92974 66.9996H70.3952C73.4497 67.0331 75.9577 64.8695 76 62.1646V4.82992C75.9565 2.12637 73.4482 -0.0349049 70.3952 0.000427097"
    fill="black" />
</svg>