<svg xmlns="http://www.w3.org/2000/svg" width="82" height="81" viewBox="0 0 82 81" fill="none">
  <path
    d="M70.4 48.8C69.9 49.3 69.5 49.8 69 50.3C68.1 51.2 67.5 52.4 67.3 53.7C67 55.1 67.9 56 69.3 55.8C70.5 55.7 71.6 55.2 72.5 54.3C74.6 52.2 76.5 50.1 78.4 47.8C79 47 79.1 46.1 78.8 45.2C78.6 44.6 78.2 44.1 77.7 43.6C76.9 42.8 76.1 42 75.2 41.2C74 40.2 72.9 39 71.5 38.3C70.2 37.6 68.9 37 67.6 36.6C67.4 36.5 67.2 36.5 67 36.5C65.9 36.4 65.2 37.2 65.6 38.3C66 39.2 66.6 40 67.2 40.8C67.9 41.7 68.7 42.6 69.6 43.4C69.3 43.4 69.1 43.5 68.9 43.5C66.8 43.6 64.8 43.7 62.7 43.8C61.4 43.9 60.1 44 58.9 44.1C58.7 44.1 58.6 44.1 58.5 43.9C57 40.4 55.6 36.9 54.2 33.4C52.7 29.6 51.2 25.7 49.8 21.9C48.9 19.5 48 17.1 47 14.7C46.5 13.5 46 12.2 45.3 11.1C44.2 9.3 42.7 8.3 40.6 8.5C39.2 8.6 38 9.3 37.2 10.5C36.3 11.8 35.8 13.3 35.2 14.7C34 17.5 32.9 20.4 31.8 23.2C30.6 26.2 29.4 29.2 28.2 32.2C26.2 37.2 24 42.2 21.9 47.2C20 51.8 18.1 56.5 16.2 61.1C15.1 63.8 14 66.6 12.9 69.3C12.8 69.6 12.7 69.6 12.5 69.4C11.4 68.3 10.3 67.2 9.3 66C7.7 64 6.3 61.9 5 59.7C3.9 57.7 3 55.6 2.2 53.4C1.3 50.9 0.700002 48.4 0.400002 45.8C0.200002 44.1 0 42.4 0 40.6C0 38 0.200001 35.3 0.700001 32.8C1.2 30.1 2.1 27.4 3.1 24.8C4 22.5 5.2 20.4 6.5 18.3C8 15.9 9.8 13.7 11.9 11.7C13.7 10 15.5 8.4 17.6 7C19.5 5.7 21.4 4.6 23.4 3.7C25 3 26.7 2.3 28.4 1.8C30.1 1.3 31.8 0.899998 33.5 0.599998C35.7 0.199998 37.9 0 40.1 0C41.6 0 43.1 0.100001 44.6 0.200001C46 0.300001 47.4 0.599999 48.8 0.799999C50.8 1.2 52.7 1.8 54.6 2.5C56.1 3.1 57.5 3.7 58.9 4.4C62 6 64.9 7.9 67.5 10.3C69.5 12.1 71.3 14 72.9 16.1C74.6 18.3 76 20.7 77.2 23.2C78.4 25.7 79.3 28.2 79.9 30.9C80.6 33.7 80.9 36.5 81 39.4C81.1 41.6 80.9 43.8 80.6 46C80.3 48.3 79.8 50.5 79.1 52.7C78.6 54.1 78.1 55.5 77.5 56.9C76.9 58.3 76.2 59.6 75.5 60.9C73.8 63.8 71.7 66.5 69.3 69C69.1 69.2 69 69.2 68.9 68.9C67.7 66 66.5 63.1 65.3 60.1C63.9 56.7 62.4 53.2 61 49.8C60.9 49.5 60.9 49.5 61.2 49.4C62.4 49.3 63.6 49.3 64.7 49.2C66.6 49.1 68.4 49 70.3 49C70.2 48.8 70.3 48.8 70.4 48.8Z"
    fill="#019F6C" />
  <path
    d="M38.3249 50.4C42.1249 50.4 45.925 50.2 49.725 50.1C50.425 50.1 51.1249 50 51.8249 50C52.1249 50 52.3249 50.1 52.4249 50.4C53.8249 53.8 55.225 57.2 56.625 60.6C58.025 64.1 59.5249 67.6 60.9249 71C61.4249 72.1 61.8249 73.2 62.3249 74.3C62.4249 74.5 62.4249 74.6 62.2249 74.8C60.1249 76.1 57.8249 77.3 55.5249 78.2C53.3249 79 51.1249 79.7 48.8249 80.2C46.7249 80.6 44.5249 80.9 42.3249 80.9C40.0249 81 37.7249 80.9 35.4249 80.6C32.7249 80.2 30.125 79.6 27.625 78.7C25.125 77.8 22.7249 76.7 20.4249 75.4C19.9249 75.1 19.925 75.1 20.125 74.6C21.125 72.1 22.0249 69.7 23.0249 67.2C24.1249 64.4 25.3249 61.5 26.4249 58.7C27.5249 55.9 28.6249 53.2 29.8249 50.5C29.9249 50.3 30.1249 50.3 30.3249 50.3C32.8249 50.3 35.3249 50.4 37.9249 50.4C37.9249 50.4 38.1249 50.4 38.3249 50.4Z"
    fill="#019F6C" />
  <path
    d="M41.3 22C41.6 22.9 42 23.8 42.3 24.7C43.7 28.5 45.2 32.3 46.7 36.1C47.7 38.6 48.8 41.2 49.8 43.7C50 44.2 50 44.2 49.5 44.2C44.2 44.4 39 44.6 33.7 44.5C33.2 44.5 32.6 44.5 32 44.5C35.2 37 38.2 29.5 41.3 22Z"
    fill="#019F6C" />
  <path
    d="M70.4 48.8C69.9 49.3 69.5 49.8 69 50.3C68.1 51.2 67.5 52.4 67.3 53.7C67 55.1 67.9 56 69.3 55.8C70.5 55.7 71.6 55.2 72.5 54.3C74.6 52.2 76.5 50.1 78.4 47.8C79 47 79.1 46.1 78.8 45.2C78.6 44.6 78.2 44.1 77.7 43.6C76.9 42.8 76.1 42 75.2 41.2C74 40.2 72.9 39 71.5 38.3C70.2 37.6 68.9 37 67.6 36.6C67.4 36.5 67.2 36.5 67 36.5C65.9 36.4 65.2 37.2 65.6 38.3C66 39.2 66.6 40 67.2 40.8C67.9 41.7 68.7 42.6 69.6 43.4C69.3 43.4 69.1 43.5 68.9 43.5C66.8 43.6 64.8 43.7 62.7 43.8C61.4 43.9 60.1 44 58.9 44.1C58.7 44.1 58.6 44.1 58.5 43.9C57 40.4 55.6 36.9 54.2 33.4C52.7 29.6 51.2 25.7 49.8 21.9C48.9 19.5 48 17.1 47 14.7C46.5 13.5 46 12.2 45.3 11.1C44.2 9.3 42.7 8.3 40.6 8.5C39.2 8.6 38 9.3 37.2 10.5C36.3 11.8 35.8 13.3 35.2 14.7C34 17.5 32.9 20.4 31.8 23.2C30.6 26.2 29.4 29.2 28.2 32.2C26.2 37.2 24 42.2 21.9 47.2C20 51.8 18.1 56.5 16.2 61.1C15.1 63.8 14 66.6 12.9 69.3C12.8 69.6 12.7 69.6 12.5 69.4C11.4 68.3 10.3 67.2 9.3 66C7.7 64 6.3 61.9 5 59.7C3.9 57.7 3 55.6 2.2 53.4C1.3 50.9 0.700002 48.4 0.400002 45.8C0.200002 44.1 0 42.4 0 40.6C0 38 0.200001 35.3 0.700001 32.8C1.2 30.1 2.1 27.4 3.1 24.8C4 22.5 5.2 20.4 6.5 18.3C8 15.9 9.8 13.7 11.9 11.7C13.7 10 15.5 8.4 17.6 7C19.5 5.7 21.4 4.6 23.4 3.7C25 3 26.7 2.3 28.4 1.8C30.1 1.3 31.8 0.899998 33.5 0.599998C35.7 0.199998 37.9 0 40.1 0C41.6 0 43.1 0.100001 44.6 0.200001C46 0.300001 47.4 0.599999 48.8 0.799999C50.8 1.2 52.7 1.8 54.6 2.5C56.1 3.1 57.5 3.7 58.9 4.4C62 6 64.9 7.9 67.5 10.3C69.5 12.1 71.3 14 72.9 16.1C74.6 18.3 76 20.7 77.2 23.2C78.4 25.7 79.3 28.2 79.9 30.9C80.6 33.7 80.9 36.5 81 39.4C81.1 41.6 80.9 43.8 80.6 46C80.3 48.3 79.8 50.5 79.1 52.7C78.6 54.1 78.1 55.5 77.5 56.9C76.9 58.3 76.2 59.6 75.5 60.9C73.8 63.8 71.7 66.5 69.3 69C69.1 69.2 69 69.2 68.9 68.9C67.7 66 66.5 63.1 65.3 60.1C63.9 56.7 62.4 53.2 61 49.8C60.9 49.5 60.9 49.5 61.2 49.4C62.4 49.3 63.6 49.3 64.7 49.2C66.6 49.1 68.4 49 70.3 49C70.2 48.8 70.3 48.8 70.4 48.8Z"
    fill="#019F6C" />
  <path
    d="M38.3249 50.4C42.1249 50.4 45.925 50.2 49.725 50.1C50.425 50.1 51.1249 50 51.8249 50C52.1249 50 52.3249 50.1 52.4249 50.4C53.8249 53.8 55.225 57.2 56.625 60.6C58.025 64.1 59.5249 67.6 60.9249 71C61.4249 72.1 61.8249 73.2 62.3249 74.3C62.4249 74.5 62.4249 74.6 62.2249 74.8C60.1249 76.1 57.8249 77.3 55.5249 78.2C53.3249 79 51.1249 79.7 48.8249 80.2C46.7249 80.6 44.5249 80.9 42.3249 80.9C40.0249 81 37.7249 80.9 35.4249 80.6C32.7249 80.2 30.125 79.6 27.625 78.7C25.125 77.8 22.7249 76.7 20.4249 75.4C19.9249 75.1 19.925 75.1 20.125 74.6C21.125 72.1 22.0249 69.7 23.0249 67.2C24.1249 64.4 25.3249 61.5 26.4249 58.7C27.5249 55.9 28.6249 53.2 29.8249 50.5C29.9249 50.3 30.1249 50.3 30.3249 50.3C32.8249 50.3 35.3249 50.4 37.9249 50.4C37.9249 50.4 38.1249 50.4 38.3249 50.4Z"
    fill="#019F6C" />
  <path
    d="M41.3 22C41.6 22.9 42 23.8 42.3 24.7C43.7 28.5 45.2 32.3 46.7 36.1C47.7 38.6 48.8 41.2 49.8 43.7C50 44.2 50 44.2 49.5 44.2C44.2 44.4 39 44.6 33.7 44.5C33.2 44.5 32.6 44.5 32 44.5C35.2 37 38.2 29.5 41.3 22Z"
    fill="#019F6C" />
</svg>