<svg xmlns="http://www.w3.org/2000/svg" width="82" height="82" viewBox="0 0 82 82">
  <path
    d="M71.0001 49.5C70.5001 50 70.1001 50.5 69.6001 51C68.7001 51.9 68.1001 53.1 67.9001 54.4C67.6001 55.8 68.5001 56.7 69.9001 56.5C71.1001 56.4 72.2001 55.9 73.1001 55C75.2001 52.9 77.1001 50.8 79.0001 48.5C79.6001 47.7 79.7001 46.8 79.4001 45.9C79.2001 45.3 78.8001 44.8 78.3001 44.3C77.5001 43.5 76.7001 42.7 75.8001 41.9C74.6001 40.9 73.5001 39.7 72.1001 39C70.8001 38.3 69.5001 37.7 68.2001 37.3C68.0001 37.2 67.8001 37.1999 67.6001 37.1999C66.5001 37.0999 65.8001 37.9 66.2001 39C66.6001 39.9 67.2001 40.7 67.8001 41.5C68.5001 42.4 69.3001 43.2999 70.2001 44.0999C69.9001 44.0999 69.7001 44.1999 69.5001 44.1999C67.4001 44.2999 65.4001 44.4 63.3001 44.5C62.0001 44.6 60.7001 44.7 59.5001 44.8C59.3001 44.8 59.2001 44.7999 59.1001 44.5999C57.6001 41.0999 56.2001 37.5999 54.8001 34.0999C53.3001 30.2999 51.8001 26.3999 50.4001 22.5999C49.5001 20.1999 48.6001 17.8 47.6001 15.4C47.1001 14.2 46.6001 12.8999 45.9001 11.7999C44.8001 9.99995 43.3001 8.99995 41.2001 9.19995C39.8001 9.29995 38.6001 9.99995 37.8001 11.2C36.9001 12.5 36.4001 14 35.8001 15.4C34.6001 18.2 33.5001 21.1 32.4001 23.9C31.2001 26.9 30.0001 29.9 28.8001 32.9C26.8001 37.9 24.6001 42.9 22.5001 47.9C20.6001 52.5 18.7001 57.2 16.8001 61.8C15.7001 64.5 14.6001 67.3 13.5001 70C13.4001 70.3 13.3001 70.2999 13.1001 70.0999C12.0001 68.9999 10.9001 67.9 9.9001 66.7C8.3001 64.7 6.9001 62.6 5.6001 60.4C4.5001 58.4 3.6001 56.2999 2.8001 54.0999C1.9001 51.5999 1.3001 49.1 1.0001 46.5C0.800099 44.8 0.600098 43.1 0.600098 41.3C0.600098 38.7 0.800098 36 1.3001 33.5C1.8001 30.8 2.7001 28.1 3.7001 25.5C4.6001 23.2 5.8001 21.1 7.1001 19C8.6001 16.6 10.4001 14.4 12.5001 12.4C14.3001 10.7 16.1001 9.09995 18.2001 7.69995C20.1001 6.39995 22.0001 5.29995 24.0001 4.39995C25.6001 3.69995 27.3001 2.99995 29.0001 2.49995C30.7001 1.99995 32.4001 1.59995 34.1001 1.29995C36.3001 0.89995 38.5001 0.699951 40.7001 0.699951C42.2001 0.699951 43.7001 0.799952 45.2001 0.899952C46.6001 0.999952 48.0001 1.29995 49.4001 1.49995C51.4001 1.89995 53.3001 2.49995 55.2001 3.19995C56.7001 3.79995 58.1001 4.39995 59.5001 5.09995C62.6001 6.69995 65.5001 8.59995 68.1001 11C70.1001 12.8 71.9001 14.6999 73.5001 16.7999C75.2001 18.9999 76.6001 21.4 77.8001 23.9C79.0001 26.4 79.9001 28.8999 80.5001 31.5999C81.2001 34.3999 81.5001 37.1999 81.6001 40.0999C81.7001 42.2999 81.5001 44.4999 81.2001 46.6999C80.9001 48.9999 80.4001 51.2 79.7001 53.4C79.2001 54.8 78.7001 56.1999 78.1001 57.5999C77.5001 58.9999 76.8001 60.2999 76.1001 61.5999C74.4001 64.4999 72.3001 67.2 69.9001 69.7C69.7001 69.9 69.6001 69.8999 69.5001 69.5999C68.3001 66.6999 67.1001 63.8 65.9001 60.8C64.5001 57.4 63.0001 53.9 61.6001 50.5C61.5001 50.2 61.5001 50.1999 61.8001 50.0999C63.0001 49.9999 64.2001 50 65.3001 49.9C67.2001 49.8 69.0001 49.6999 70.9001 49.6999C70.8001 49.4999 70.9001 49.5 71.0001 49.5Z"
    fill="#C7E5C3" />
  <path
    d="M38.5 50.9C42.3 50.9 46.1 50.7 49.9 50.6C50.6 50.6 51.3 50.5 52 50.5C52.3 50.5 52.5 50.6 52.6 50.9C54 54.3 55.4 57.7 56.8 61.1C58.2 64.6 59.7 68.1 61.1 71.5C61.6 72.6 62 73.7 62.5 74.8C62.6 75 62.6 75.1 62.4 75.3C60.3 76.6 58 77.8 55.7 78.7C53.5 79.5 51.3 80.2 49 80.7C46.9 81.1 44.7 81.4 42.5 81.4C40.2 81.5 37.9 81.4 35.6 81.1C32.9 80.7 30.3 80.1 27.8 79.2C25.3 78.3 22.9 77.2 20.6 75.9C20.1 75.6 20.1 75.6 20.3 75.1C21.3 72.6 22.2 70.2 23.2 67.7C24.3 64.9 25.5 62 26.6 59.2C27.7 56.4 28.8 53.7 30 51C30.1 50.8 30.3 50.8 30.5 50.8C33 50.8 35.5 50.9 38.1 50.9C38.1 50.9 38.3 50.9 38.5 50.9Z"
    fill="#C7E5C3" />
  <path
    d="M41.5002 23.0999C41.8002 23.9999 42.2002 24.8999 42.5002 25.7999C43.9002 29.5999 45.4002 33.3999 46.9002 37.1999C47.9002 39.6999 49.0002 42.2999 50.0002 44.7999C50.2002 45.2999 50.2002 45.2999 49.7002 45.2999C44.4002 45.4999 39.2002 45.6999 33.9002 45.5999C33.4002 45.5999 32.8002 45.5999 32.2002 45.5999C35.4002 38.0999 38.4002 30.5999 41.5002 23.0999Z"
    fill="#C7E5C3" />
</svg>