<svg xmlns="http://www.w3.org/2000/svg" width="76" height="67" viewBox="0 0 76 67" fill="none">
  <path
    d="M64.7271 9.77836C57.7185 3.44065 48.0301 0 38.1354 0C17.1096 0 0.206268 15.0297 0.412241 33.3188C0.412241 39.1134 2.26747 44.7271 5.35972 49.7973L0 67L19.9953 62.4729C25.561 65.1893 31.7449 66.4569 37.9294 66.4569C58.7492 66.4569 75.6526 51.427 75.6526 33.1381C75.6526 24.265 71.7355 15.9351 64.7271 9.77836ZM38.1354 60.8435C32.5697 60.8435 27.004 59.5761 22.2628 57.041L21.0261 56.4976L9.07019 59.2138L12.1621 48.8923L11.3377 47.8057C2.26747 34.949 6.59645 17.927 21.4383 9.9593C36.2802 1.99186 55.451 5.79464 64.5212 18.8325C73.5911 31.8703 69.2621 48.7109 54.4205 56.6786C49.679 59.3947 43.9074 60.8432 38.1354 60.8432V60.8435ZM56.2755 40.7437L54.008 39.8382C54.008 39.8382 50.7101 38.5706 48.6486 37.6652C48.4423 37.6652 48.2363 37.484 48.0301 37.484C47.4116 37.484 46.9993 37.6652 46.5871 37.8464C46.5871 37.8464 46.3811 38.0273 43.4951 40.9246C43.2888 41.2868 42.8766 41.468 42.4644 41.468H42.2581C42.0521 41.468 41.6399 41.2868 41.4336 41.1058L40.4029 40.7437C38.1354 39.8382 36.0742 38.7516 34.4249 37.303C34.0127 36.9409 33.3942 36.5788 32.9819 36.2166C31.5389 34.949 30.096 33.5003 29.0655 31.8705L28.8592 31.5084C28.6533 31.3272 28.6533 31.1463 28.447 30.7841C28.447 30.422 28.447 30.0599 28.6533 29.8787C28.6533 29.8787 29.4777 28.9732 30.096 28.4301C30.5085 28.0677 30.7145 27.5247 31.1267 27.1625C31.5389 26.6192 31.7452 25.895 31.5389 25.3516C31.333 24.4462 28.8592 19.557 28.241 18.4706C27.8285 17.9273 27.4165 17.7463 26.798 17.5651H24.5306C24.118 17.5651 23.7061 17.7463 23.2935 17.7463L23.0873 17.9273C22.675 18.1084 22.2628 18.4706 21.8505 18.6515C21.4383 19.0139 21.232 19.3758 20.8198 19.7382C19.3768 21.3679 18.5523 23.3598 18.5523 25.3516C18.5523 26.8002 18.9646 28.2489 19.5831 29.5165L19.7893 30.0599C21.6446 33.5003 24.118 36.5788 27.4165 39.2949L28.241 40.0192C28.8592 40.5625 29.4777 40.9246 29.89 41.4677C34.219 44.7274 39.1661 47.0814 44.7318 48.349C45.3503 48.5299 46.1748 48.5299 46.7933 48.7111H48.8545C49.8853 48.7111 51.122 48.349 51.9468 47.9869C52.565 47.6247 52.9772 47.6247 53.3895 47.2626L53.802 46.9002C54.2143 46.5381 54.6265 46.3571 55.0387 45.995C55.451 45.6329 55.8632 45.2707 56.0695 44.9083C56.4817 44.1841 56.6877 43.2786 56.894 42.3734V41.1058C56.894 41.1058 56.6877 40.9246 56.2755 40.7437Z"
    fill="black" />
</svg>